<svg width="203" height="61" viewBox="0 0 203 61" fill="none" xmlns="http://www.w3.org/2000/svg">
<path d="M8.52136 18.4707H30.0709C32.0782 18.4707 33.5173 20.3954 32.7978 22.2474L27.1168 37.2454C26.2458 39.4969 24.1249 40.9495 21.6253 40.9495H0L8.52136 18.4707ZM15.187 24.0995L10.9073 35.3207H19.05L23.3296 24.0995H15.187ZM30.7243 40.9495H39.5108L42.6921 32.5245H46.7445L51.2134 40.9495H59.9999L55.5309 32.5245H56.1748C58.6744 32.5245 60.7952 31.0719 61.6663 28.8204L64.1659 22.2474C64.8855 20.3954 63.4463 18.4707 61.4391 18.4707H39.2457L30.7243 40.9495ZM45.684 24.0995H55.1143L53.7509 27.6583H44.3206L45.684 24.0995ZM96.9959 18.4707L94.8751 24.0995H77.2642L76.2038 27.0046H90.8605L88.929 31.6892H74.2723L73.0225 35.3207H90.5954L88.4746 40.9495H62.0773L70.5987 18.4707H96.9959ZM93.948 40.9495H102.734L104.893 35.3207H113.68L111.521 40.9495H120.345L128.867 18.4707H106.597C104.06 18.4707 101.939 19.9233 101.068 22.1748L93.948 40.9495ZM109.135 24.0995H117.921L115.801 29.7282H107.014L109.135 24.0995ZM125.819 40.9495H134.605L139.642 27.4041C139.68 28.203 140.097 28.8567 140.286 29.3651L142.899 34.5944L149.944 29.0746C150.36 28.7114 150.853 28.4209 151.269 27.9125C149.527 32.4882 148.05 36.3738 146.346 40.9495H155.132L163.654 18.4707H154.867L146.573 24.8984L143.127 18.4707H134.34L125.819 40.9495Z" fill="#3047FD"/>
<path d="M167.588 0.49081C168.059 0.964164 168.524 1.37941 169.279 2.00024C170.206 2.76379 170.937 3.45156 171.058 3.67039C171.189 3.91165 171.286 4.18859 171.24 4.18859C171.146 4.18859 170.746 3.86712 170.187 3.34451C169.856 3.03188 169.465 2.706 169.326 2.62547C169.186 2.54053 168.85 2.31285 168.58 2.11644C168.007 1.70119 167.714 1.56256 167.295 1.50446C166.917 1.45551 166.796 1.39298 166.531 1.12931C166.224 0.821423 166.13 0.794582 165.334 0.794582C164.957 0.794582 164.598 0.807852 164.542 0.821431C164.444 0.847956 164.44 0.857107 164.505 0.972998C164.542 1.03994 164.677 1.16973 164.807 1.26352C164.933 1.35257 165.041 1.45552 165.041 1.4912C165.041 1.5313 164.994 1.66077 164.943 1.78139C164.835 2.01381 164.831 2.01823 164.412 2.06717C164.02 2.11643 163.993 2.1297 163.834 2.38422C163.755 2.51842 163.676 2.62547 163.667 2.62547C163.657 2.62547 163.443 2.52727 163.187 2.41106C162.935 2.29044 162.367 2.05391 161.925 1.88876C161.254 1.6295 161.114 1.5894 161.081 1.64309C161.054 1.67877 161.035 1.88402 161.035 2.09844V2.48717L160.63 2.46033C160.257 2.43791 160.211 2.44674 160.118 2.53169C159.992 2.64789 159.987 2.71926 160.08 2.89357C160.183 3.08556 160.472 3.21062 160.872 3.23746L161.207 3.26398L161.231 3.68397L161.254 4.10806L161.673 4.51446C161.901 4.74246 162.363 5.22465 162.698 5.59538C163.517 6.49756 163.839 6.78777 164.528 7.22544C165.189 7.64511 165.474 7.89521 166.415 8.87791C167.742 10.2623 168.934 11.6555 170.746 13.9465C171.309 14.6567 172.022 15.6927 172.958 17.1621C173.35 17.7737 173.95 18.6848 174.295 19.185C174.635 19.6851 175.213 20.5962 175.576 21.217C175.939 21.8378 176.405 22.6149 176.615 22.9452C177.094 23.7 177.453 24.3789 177.55 24.7228L177.63 24.9909L176.633 26.1207C176.083 26.746 174.253 28.8001 172.562 30.6935C166.494 37.4818 166.456 37.5264 162.921 42.1086C162.46 42.7071 161.864 43.4573 161.598 43.7788C161.189 44.2702 160.942 44.663 161.002 44.7255C161.035 44.7524 161.478 44.6049 161.598 44.5291C161.668 44.4843 161.845 44.3014 161.99 44.1183C162.139 43.9351 162.414 43.6092 162.6 43.3904C162.786 43.176 163.094 42.7696 163.285 42.4926C163.764 41.7916 164.286 41.1841 165.134 40.3444C165.534 39.9516 165.949 39.5051 166.051 39.3576C166.303 39.0001 166.573 38.7636 166.792 38.6878C166.894 38.6566 166.983 38.6341 166.992 38.643C167.025 38.6787 166.578 39.237 165.818 40.1035C165.399 40.5901 164.933 41.1616 164.784 41.376C164.365 41.988 164.314 42.0505 163.555 42.9123C162.656 43.9263 160.327 46.7708 159.95 47.3067C159.615 47.7848 159.265 48.2357 158.66 48.9592C158.32 49.3656 157.719 50.1159 157.612 50.2678C157.593 50.2902 157.1 50.1784 157.062 50.1471C157.044 50.1295 157.118 49.982 157.23 49.8257C157.481 49.4729 157.509 49.4281 157.477 49.4281C157.426 49.4281 156.937 50.0265 156.937 50.089C156.937 50.1247 157.02 50.2409 157.123 50.3483C157.225 50.4553 157.309 50.5624 157.309 50.5848C157.309 50.6385 156.69 51.4065 155.609 52.6882C155.148 53.2421 154.747 53.7199 154.724 53.7555C154.64 53.8894 155.292 53.4117 155.632 53.0902C155.828 52.907 156.256 52.4425 156.587 52.063C156.913 51.6834 157.616 50.9467 158.147 50.4329C158.674 49.915 159.452 49.1243 159.871 48.669C160.597 47.883 162.209 46.2662 162.824 45.7035C162.977 45.5607 163.229 45.3864 163.378 45.3107C163.648 45.1812 163.653 45.1812 163.62 45.2838C163.508 45.641 163.094 46.186 162.228 47.1371C162.055 47.3291 161.552 47.9992 161.119 48.6244C160.201 49.9371 160.104 50.0669 159.428 50.7904C158.785 51.4826 157.314 53.2285 156.978 53.6974C156.568 54.2693 156.317 54.5728 155.446 55.5242C154.999 56.0153 154.477 56.6092 154.286 56.8417C154.095 57.0738 153.578 57.6857 153.141 58.2036C152.246 59.2533 151.566 60.1018 151.599 60.133C151.613 60.1463 151.739 60.1062 151.878 60.0437C152.214 59.8962 152.535 59.606 152.968 59.0521C153.164 58.8064 153.606 58.3467 153.946 58.0249C154.291 57.7034 154.929 57.0605 155.367 56.596C155.805 56.1271 156.559 55.3543 157.053 54.8766C157.546 54.3988 158.254 53.6529 158.637 53.2241C159.014 52.7956 159.652 52.1299 160.052 51.7503C160.453 51.3708 161.063 50.768 161.407 50.4105C162.19 49.598 165.264 46.6281 165.763 46.1993C166.107 45.9002 166.126 45.8911 166.019 46.0565C165.781 46.4405 165.548 46.7396 165.217 47.1059C165.031 47.3159 164.668 47.7267 164.412 48.0213C164.16 48.3162 163.536 48.9592 163.033 49.4505C162.209 50.2589 162.097 50.3792 161.92 50.7187C161.748 51.0537 161.631 51.1876 160.9 51.9111C159.861 52.9295 159.568 53.2822 160.267 52.657C160.937 52.0586 161.203 51.871 161.72 51.6297C162.283 51.3619 162.628 51.085 163.308 50.3391C163.62 49.9952 164.016 49.6068 164.183 49.4729C164.691 49.0754 165.637 48.1555 166.224 47.4943C166.568 47.1103 166.983 46.7083 167.318 46.4317C167.63 46.1768 167.965 45.8554 168.115 45.6678C168.254 45.4891 168.855 44.8686 169.446 44.2923C170.038 43.7163 170.681 43.0465 170.876 42.8097C171.263 42.3407 171.426 42.2024 171.747 42.0638C172.05 41.9299 172.073 41.9388 172.017 42.1399C171.943 42.4165 171.794 42.5864 171.3 42.9704C171.044 43.1668 170.657 43.5243 170.443 43.7564C169.978 44.261 169.321 44.9444 168.212 46.0786C167.765 46.5343 167.067 47.2666 166.652 47.7087C166.237 48.1464 165.627 48.7852 165.292 49.1199C164.952 49.4594 164.486 49.982 164.254 50.2858C163.625 51.103 163.396 51.3262 162.972 51.5628C162.581 51.7816 162.581 51.8309 162.982 51.7728C163.173 51.7459 163.233 51.7014 163.639 51.295C163.885 51.0449 164.37 50.6293 164.715 50.3615C165.115 50.0533 165.488 49.723 165.739 49.4417C166.317 48.8029 166.666 48.4546 166.913 48.285C167.029 48.2 167.239 47.9768 167.379 47.7848C167.556 47.5347 168.198 46.8914 169.665 45.5027L171.701 43.5644V43.7431C171.701 43.8814 171.724 43.9307 171.803 43.9664C171.892 44.0021 171.938 43.9664 172.213 43.6718C172.614 43.2385 173.028 42.8634 173.489 42.5151C173.689 42.3587 174.011 42.0995 174.197 41.9343C174.593 41.5949 179.311 36.9997 179.875 36.4057C180.08 36.1913 180.592 35.7312 181.016 35.3829C181.822 34.7175 182.078 34.4718 182.371 34.0566L182.553 33.8065L182.483 33.5921C182.367 33.2213 182.245 33.0695 183.857 35.2935C185.995 38.2454 186.74 39.1744 187.853 40.291C188.174 40.6125 188.747 41.2242 189.134 41.653C189.884 42.4882 190.233 42.8365 191.7 44.1808C193.964 46.2618 194.667 46.7888 192.972 45.1408C192.222 44.4085 191.993 44.1271 191.891 43.8101L191.858 43.7074L192.063 43.8012C192.18 43.859 192.511 44.136 192.846 44.4666C193.209 44.8193 193.53 45.0874 193.698 45.1812C193.847 45.2614 194.169 45.4802 194.411 45.6634C194.998 46.1099 195.319 46.2886 195.636 46.3467C196.148 46.4449 196.25 46.485 196.53 46.7174C197.014 47.1147 196.996 47.1059 197.62 47.1059C198.211 47.1059 198.458 47.0658 198.617 46.9363C198.714 46.8602 198.71 46.8558 198.309 46.5968C197.326 45.9627 196.628 45.4 196.344 45.0113L196.227 44.8594L196.53 44.8862C196.693 44.8998 196.935 44.9444 197.07 44.9845C197.28 45.0426 197.336 45.0874 197.541 45.3552C197.946 45.8778 197.941 45.8734 198.467 45.8421L198.919 45.8108L199.203 45.5427L199.487 45.2705L200.186 45.5784C200.861 45.8778 201.56 46.1323 201.872 46.186C201.989 46.2037 202.045 46.1904 202.119 46.119C202.208 46.0341 202.212 45.994 202.184 45.7215L202.152 45.4133L202.575 45.4401L202.999 45.467V45.2124C202.999 45.0738 202.967 44.8998 202.929 44.8329C202.855 44.6898 202.701 44.6497 202.221 44.6497C202.058 44.6497 201.928 44.6362 201.928 44.614C201.928 44.5961 201.895 44.3952 201.858 44.1672L201.788 43.7475L201.09 42.9748C199.846 41.5949 199.334 41.1171 198.645 40.6839C197.955 40.2506 197.713 40.0365 196.786 39.0674C195.659 37.8927 194.597 36.6558 192.939 34.6013C191.849 33.2526 191.141 32.239 189.641 29.8675C189.32 29.3628 188.887 28.7199 188.677 28.4386C188.263 27.8847 188.002 27.4647 188.002 27.3532C188.002 27.3175 188.23 27.0586 188.505 26.7817C189.157 26.1207 189.427 25.8081 189.702 25.3749C189.828 25.1784 190.121 24.8298 190.349 24.5977C190.582 24.3609 190.95 23.928 191.169 23.633C191.388 23.334 191.747 22.8426 191.97 22.5344C192.194 22.231 192.511 21.829 192.674 21.6502C192.837 21.4671 193.051 21.168 193.148 20.9893C193.246 20.8106 193.558 20.3909 193.838 20.0515C194.411 19.377 194.942 18.6759 195.58 17.7649C195.813 17.4343 196.199 16.9164 196.446 16.617C196.986 15.9517 197.126 15.7196 197.317 15.1746C197.489 14.6791 197.634 14.4378 198.207 13.692C198.439 13.3882 198.705 13.0042 198.793 12.8346C198.882 12.6647 199.11 12.2763 199.301 11.9725C199.967 10.9052 200.126 10.5032 200.102 9.92282L200.088 9.5701L199.874 9.83788C199.758 9.98534 199.436 10.4499 199.166 10.8695C198.891 11.2892 198.467 11.9012 198.216 12.2318C197.969 12.5621 197.596 13.0579 197.387 13.3348C197.177 13.6118 196.772 14.2146 196.479 14.6744C195.873 15.6346 195.743 15.8134 195.235 16.3625C194.713 16.9297 194.378 17.3673 193.54 18.5553C192.813 19.5825 192.306 20.2479 191.984 20.6009C191.826 20.7749 191.821 20.7749 191.872 20.6454C192.007 20.2835 192.259 19.8595 192.79 19.1047C193.111 18.6491 193.605 17.8988 193.88 17.4343C194.453 16.4876 194.96 15.6927 196.004 14.1028C196.898 12.7497 197.652 11.5797 197.755 11.3921C197.797 11.3116 197.895 10.9857 197.969 10.6595C198.085 10.1505 198.151 9.99419 198.43 9.48515C198.849 8.71244 199.287 8.03383 199.767 7.41301L200.158 6.91281H199.93C199.595 6.91281 199.492 6.9665 199.045 7.36817C198.607 7.76131 197.993 8.23467 197.475 8.56971L197.14 8.78413L197.037 8.41782C196.977 8.21667 196.917 8.03825 196.898 8.02026C196.884 7.99783 196.716 8.19014 196.525 8.44466C196.334 8.69476 196.013 9.08759 195.808 9.32C195.608 9.54768 194.998 10.3918 194.453 11.1954C193.554 12.522 193.228 12.9865 192.534 13.902C192.403 14.0715 192.124 14.5136 191.914 14.8844C191.705 15.2507 191.472 15.6302 191.402 15.7328C191.23 15.9741 190.852 16.3717 190.745 16.4295C190.661 16.4699 190.657 16.4699 190.736 16.3044C190.904 15.9605 191.132 15.617 191.611 14.9961C191.882 14.6431 192.184 14.2234 192.287 14.0627C192.455 13.7858 192.464 13.7412 192.492 13.2811C192.529 12.7052 192.58 12.5845 193.195 11.718C193.759 10.9276 194.075 10.2399 194.439 9.05191C194.616 8.47592 194.728 8.27035 195.119 7.797C195.715 7.07797 195.883 6.76092 195.99 6.15368C196.087 5.60864 196.19 5.39423 196.726 4.64394C197.182 4.00543 197.391 3.66155 197.345 3.61703C197.298 3.57661 196.958 3.91165 196.651 4.30005C196.497 4.49679 196.055 4.97014 195.664 5.34971C194.904 6.1 194.332 6.7385 193.614 7.64953C192.976 8.44908 192.683 8.79739 192.012 9.52526C191.695 9.86914 191.267 10.3605 191.062 10.6194C190.82 10.9232 190.126 11.6242 189.101 12.6066C187.424 14.2102 186.935 14.7549 186.409 15.581C186.074 16.108 186.074 16.108 184.947 17.3853C184.243 18.1801 183.54 18.8815 183.442 18.8815C183.368 18.8815 183.088 18.524 182.911 18.2114C181.542 15.7597 180.806 14.6074 179.558 12.9461C179.325 12.6379 178.873 12.0218 178.557 11.5841C177.029 9.47157 176.093 8.34171 174.775 7.02428C174.505 6.75208 174.095 6.32326 173.867 6.06432C173.242 5.35855 171.444 3.65271 170.187 2.58095C169.572 2.05392 168.808 1.37057 168.487 1.05795C167.979 0.566594 167.509 0.213867 167.351 0.213867C167.327 0.213867 167.435 0.33892 167.588 0.49081ZM165.828 1.8976C166.172 2.17896 166.61 2.60305 166.81 2.84431L166.969 3.04072L166.675 3.01389C166.177 2.96052 165.907 2.86673 165.716 2.66558C165.544 2.48243 165.143 1.90644 165.12 1.81266C165.11 1.76371 165.283 1.70561 165.478 1.69203C165.525 1.69203 165.683 1.7814 165.828 1.8976ZM191.346 21.5877C191.374 21.8558 190.946 22.1684 190.876 21.9228C190.824 21.7352 191.09 21.4046 191.262 21.4358C191.304 21.4447 191.337 21.5072 191.346 21.5877Z" fill="#3047FD"/>
</svg>
